<svg width="64" height="64" viewBox="0 0 64 64" fill="none" xmlns="http://www.w3.org/2000/svg">
<circle cx="32" cy="32" r="32" fill="#ED1C24"/>
<path d="M41.3333 15.875C42.1842 15.875 43.0003 15.537 43.602 14.9353C44.2036 14.3337 44.5417 13.5176 44.5417 12.6667C44.5417 11.8158 44.2036 10.9998 43.602 10.3981C43.0003 9.79639 42.1842 9.45837 41.3333 9.45837C40.4824 9.45837 39.6664 9.79639 39.0647 10.3981C38.463 10.9998 38.125 11.8158 38.125 12.6667C38.125 13.5176 38.463 14.3337 39.0647 14.9353C39.6664 15.537 40.4824 15.875 41.3333 15.875Z" fill="white"/>
<path d="M40.2135 17.5084C39.3049 17.303 38.4732 16.8444 37.8145 16.1857C37.1558 15.5271 36.6973 14.6953 36.4918 13.7867C36.3402 13.0751 36.3285 12.3867 36.4568 11.7334C36.4939 11.5645 36.4926 11.3895 36.4529 11.2213C36.4132 11.053 36.3361 10.8959 36.2274 10.7614C36.1188 10.627 35.9812 10.5187 35.8251 10.4446C35.6689 10.3705 35.498 10.3325 35.3252 10.3334H26.1668C22.9468 10.3334 20.3335 12.9467 20.3335 16.1667V24.2751C20.3335 27.4951 22.9468 30.1084 26.1668 30.1084H27.9168C28.2435 30.1084 28.6635 30.3184 28.8502 30.5751L30.6002 32.8967C31.3702 33.9234 32.6302 33.9234 33.4002 32.8967L35.1502 30.5751C35.2588 30.4302 35.3997 30.3126 35.5617 30.2316C35.7237 30.1506 35.9024 30.1084 36.0835 30.1084H37.8452C41.0652 30.1084 43.6668 27.5067 43.6668 24.2867V18.6751C43.6668 17.9401 42.9902 17.4034 42.2668 17.5434C41.6135 17.6601 40.9252 17.6601 40.2135 17.5084ZM27.3335 22.0001C26.6802 22.0001 26.1668 21.4751 26.1668 20.8334C26.1668 20.1917 26.6802 19.6667 27.3335 19.6667C27.9752 19.6667 28.5002 20.1917 28.5002 20.8334C28.5002 21.4751 27.9868 22.0001 27.3335 22.0001ZM32.0002 22.0001C31.3468 22.0001 30.8335 21.4751 30.8335 20.8334C30.8335 20.1917 31.3468 19.6667 32.0002 19.6667C32.6418 19.6667 33.1668 20.1917 33.1668 20.8334C33.1668 21.4751 32.6535 22.0001 32.0002 22.0001ZM36.6668 22.0001C36.0135 22.0001 35.5002 21.4751 35.5002 20.8334C35.5002 20.1917 36.0135 19.6667 36.6668 19.6667C37.3085 19.6667 37.8335 20.1917 37.8335 20.8334C37.8335 21.4751 37.3202 22.0001 36.6668 22.0001Z" fill="white"/>
<path d="M13.88 49V41.08H15.0295V47.9165H18.6155V49H13.88ZM19.6593 42.0865V40.97H20.8088V42.0865H19.6593ZM19.6593 49V43.06H20.8088V49H19.6593ZM23.1039 42.18L24.5284 40.53H25.5184L26.9429 42.18H25.8429L25.0234 41.2065L24.2039 42.18H23.1039ZM25.0949 49.165C24.5046 49.165 23.9858 49.0367 23.5384 48.78C23.0948 48.5197 22.7483 48.1585 22.4989 47.6965C22.2533 47.2308 22.1304 46.6918 22.1304 46.0795C22.1304 45.4305 22.2514 44.8677 22.4934 44.391C22.7391 43.9143 23.0801 43.5458 23.5164 43.2855C23.9528 43.0252 24.4606 42.895 25.0399 42.895C25.6449 42.895 26.1601 43.0362 26.5854 43.3185C27.0108 43.5972 27.3279 43.995 27.5369 44.512C27.7496 45.029 27.8339 45.6432 27.7899 46.3545H26.6404V45.9365C26.6331 45.2472 26.5011 44.7375 26.2444 44.4075C25.9914 44.0775 25.6046 43.9125 25.0839 43.9125C24.5083 43.9125 24.0756 44.094 23.7859 44.457C23.4963 44.82 23.3514 45.3443 23.3514 46.03C23.3514 46.6827 23.4963 47.1887 23.7859 47.548C24.0756 47.9037 24.4936 48.0815 25.0399 48.0815C25.3993 48.0815 25.7091 48.0008 25.9694 47.8395C26.2334 47.6745 26.4388 47.4398 26.5854 47.1355L27.7129 47.493C27.4819 48.0247 27.1318 48.4372 26.6624 48.7305C26.1931 49.0202 25.6706 49.165 25.0949 49.165ZM22.9774 46.3545V45.458H27.2179V46.3545H22.9774ZM33.0318 49V46.0795C33.0318 45.8485 33.0116 45.612 32.9713 45.37C32.9346 45.1243 32.8613 44.897 32.7513 44.688C32.6449 44.479 32.4928 44.3103 32.2948 44.182C32.1004 44.0537 31.8456 43.9895 31.5303 43.9895C31.3249 43.9895 31.1306 44.0243 30.9473 44.094C30.7639 44.16 30.6026 44.2682 30.4633 44.4185C30.3276 44.5688 30.2194 44.7668 30.1388 45.0125C30.0618 45.2582 30.0233 45.557 30.0233 45.909L29.3083 45.6395C29.3083 45.1005 29.4091 44.6257 29.6108 44.215C29.8124 43.8007 30.1021 43.478 30.4798 43.247C30.8574 43.016 31.3139 42.9005 31.8493 42.9005C32.2599 42.9005 32.6046 42.9665 32.8833 43.0985C33.1619 43.2305 33.3874 43.4047 33.5598 43.621C33.7358 43.8337 33.8696 44.0665 33.9613 44.3195C34.0529 44.5725 34.1153 44.82 34.1483 45.062C34.1813 45.304 34.1978 45.5167 34.1978 45.7V49H33.0318ZM28.8573 49V43.06H29.8858V44.776H30.0233V49H28.8573ZM42.0015 49V46.0795C42.0015 45.8485 41.9813 45.612 41.941 45.37C41.9043 45.1243 41.831 44.897 41.721 44.688C41.6147 44.479 41.4625 44.3103 41.2645 44.182C41.0702 44.0537 40.8153 43.9895 40.5 43.9895C40.2947 43.9895 40.1003 44.0243 39.917 44.094C39.7337 44.16 39.5723 44.2682 39.433 44.4185C39.2973 44.5688 39.1892 44.7668 39.1085 45.0125C39.0315 45.2582 38.993 45.557 38.993 45.909L38.278 45.6395C38.278 45.1005 38.3788 44.6257 38.5805 44.215C38.7822 43.8007 39.0718 43.478 39.4495 43.247C39.8272 43.016 40.2837 42.9005 40.819 42.9005C41.2297 42.9005 41.5743 42.9665 41.853 43.0985C42.1317 43.2305 42.3572 43.4047 42.5295 43.621C42.7055 43.8337 42.8393 44.0665 42.931 44.3195C43.0227 44.5725 43.085 44.82 43.118 45.062C43.151 45.304 43.1675 45.5167 43.1675 45.7V49H42.0015ZM37.827 49V41.08H38.8555V45.3535H38.993V49H37.827ZM46.4976 51.1285V50.012H47.7131V51.1285H46.4976ZM45.2436 42.18L46.6681 40.53H47.6581L49.0826 42.18H47.9826L47.1631 41.2065L46.3436 42.18H45.2436ZM47.2346 49.165C46.6442 49.165 46.1254 49.0367 45.6781 48.78C45.2344 48.5197 44.8879 48.1585 44.6386 47.6965C44.3929 47.2308 44.2701 46.6918 44.2701 46.0795C44.2701 45.4305 44.3911 44.8677 44.6331 44.391C44.8787 43.9143 45.2197 43.5458 45.6561 43.2855C46.0924 43.0252 46.6002 42.895 47.1796 42.895C47.7846 42.895 48.2997 43.0362 48.7251 43.3185C49.1504 43.5972 49.4676 43.995 49.6766 44.512C49.8892 45.029 49.9736 45.6432 49.9296 46.3545H48.7801V45.9365C48.7727 45.2472 48.6407 44.7375 48.3841 44.4075C48.1311 44.0775 47.7442 43.9125 47.2236 43.9125C46.6479 43.9125 46.2152 44.094 45.9256 44.457C45.6359 44.82 45.4911 45.3443 45.4911 46.03C45.4911 46.6827 45.6359 47.1887 45.9256 47.548C46.2152 47.9037 46.6332 48.0815 47.1796 48.0815C47.5389 48.0815 47.8487 48.0008 48.1091 47.8395C48.3731 47.6745 48.5784 47.4398 48.7251 47.1355L49.8526 47.493C49.6216 48.0247 49.2714 48.4372 48.8021 48.7305C48.3327 49.0202 47.8102 49.165 47.2346 49.165ZM45.1171 46.3545V45.458H49.3576V46.3545H45.1171Z" fill="white"/>
</svg>
