<svg width="64" height="64" viewBox="0 0 64 64" fill="none" xmlns="http://www.w3.org/2000/svg">
<circle cx="32" cy="32" r="32" fill="#ED1C24"/>
<path d="M42.6667 25C43.6391 25 44.5718 24.6137 45.2594 23.926C45.947 23.2384 46.3333 22.3058 46.3333 21.3333C46.3333 20.3608 45.947 19.4282 45.2594 18.7406C44.5718 18.0529 43.6391 17.6666 42.6667 17.6666C41.6942 17.6666 40.7616 18.0529 40.0739 18.7406C39.3863 19.4282 39 20.3608 39 21.3333C39 22.3058 39.3863 23.2384 40.0739 23.926C40.7616 24.6137 41.6942 25 42.6667 25Z" fill="white"/>
<path d="M41.3867 26.8666C40.3484 26.6319 39.3978 26.1078 38.645 25.355C37.8923 24.6023 37.3682 23.6517 37.1334 22.6133C36.9601 21.8 36.9467 21.0133 37.0934 20.2666C37.1358 20.0737 37.1343 19.8737 37.0889 19.6814C37.0435 19.4891 36.9555 19.3095 36.8313 19.1558C36.7071 19.0022 36.5499 18.8784 36.3714 18.7938C36.1929 18.7091 35.9976 18.6656 35.8001 18.6666H25.3334C21.6534 18.6666 18.6667 21.6533 18.6667 25.3333V34.6C18.6667 38.28 21.6534 41.2666 25.3334 41.2666H27.3334C27.7067 41.2666 28.1867 41.5066 28.4001 41.8L30.4001 44.4533C31.2801 45.6266 32.7201 45.6266 33.6001 44.4533L35.6001 41.8C35.7243 41.6344 35.8853 41.5 36.0705 41.4074C36.2556 41.3148 36.4598 41.2666 36.6667 41.2666H38.6801C42.3601 41.2666 45.3334 38.2933 45.3334 34.6133V28.2C45.3334 27.36 44.5601 26.7466 43.7334 26.9066C42.9867 27.04 42.2001 27.04 41.3867 26.8666ZM26.6667 32C25.9201 32 25.3334 31.4 25.3334 30.6666C25.3334 29.9333 25.9201 29.3333 26.6667 29.3333C27.4001 29.3333 28.0001 29.9333 28.0001 30.6666C28.0001 31.4 27.4134 32 26.6667 32ZM32.0001 32C31.2534 32 30.6667 31.4 30.6667 30.6666C30.6667 29.9333 31.2534 29.3333 32.0001 29.3333C32.7334 29.3333 33.3334 29.9333 33.3334 30.6666C33.3334 31.4 32.7467 32 32.0001 32ZM37.3334 32C36.5867 32 36.0001 31.4 36.0001 30.6666C36.0001 29.9333 36.5867 29.3333 37.3334 29.3333C38.0667 29.3333 38.6667 29.9333 38.6667 30.6666C38.6667 31.4 38.0801 32 37.3334 32Z" fill="white"/>
</svg>
