<svg width="40" height="40" viewBox="0 0 40 40" fill="none" xmlns="http://www.w3.org/2000/svg">
<path d="M20 40C31.0457 40 40 31.0457 40 20C40 8.9543 31.0457 0 20 0C8.9543 0 0 8.9543 0 20C0 31.0457 8.9543 40 20 40Z" fill="#2C73DF"/>
<path d="M26.1351 7.69226H21.955C19.4745 7.69226 16.7154 8.67415 16.7154 12.0582C16.7275 13.2373 16.7154 14.3666 16.7154 15.6375H13.8457V19.9352H16.8042V32.3076H22.2405V19.8536H25.8287L26.1534 15.6254H22.1469C22.1469 15.6254 22.1558 13.7446 22.1469 13.1984C22.1469 11.8611 23.6254 11.9376 23.7143 11.9376C24.4179 11.9376 25.7859 11.9396 26.1371 11.9376V7.69226H26.1351Z" fill="white"/>
</svg>
