<svg width="24" height="24" viewBox="0 0 24 24" fill="none" xmlns="http://www.w3.org/2000/svg">
<path d="M3.96973 18C3.96973 21 4.96973 22 7.96973 22H15.9697C18.9697 22 19.9697 21 19.9697 18V10H3.96973V13.84" stroke="#ED1C24" stroke-width="1.5" stroke-miterlimit="10" stroke-linecap="round" stroke-linejoin="round"/>
<path d="M21.5 7V8C21.5 9.1 20.97 10 19.5 10H4.5C2.97 10 2.5 9.1 2.5 8V7C2.5 5.9 2.97 5 4.5 5H19.5C20.97 5 21.5 5.9 21.5 7Z" stroke="#ED1C24" stroke-width="1.5" stroke-miterlimit="10" stroke-linecap="round" stroke-linejoin="round"/>
<path d="M11.64 4.99994H6.12004C5.95562 4.8216 5.86685 4.58639 5.87244 4.34388C5.87804 4.10137 5.97756 3.87051 6.15004 3.69994L7.57004 2.27994C7.74976 2.10223 7.9923 2.00256 8.24504 2.00256C8.49778 2.00256 8.74033 2.10223 8.92004 2.27994L11.64 4.99994Z" stroke="#ED1C24" stroke-width="1.5" stroke-miterlimit="10" stroke-linecap="round" stroke-linejoin="round"/>
<path d="M17.8696 4.99994H12.3496L15.0696 2.27994C15.2493 2.10223 15.4919 2.00256 15.7446 2.00256C15.9973 2.00256 16.2399 2.10223 16.4196 2.27994L17.8396 3.69994C18.1996 4.05994 18.2096 4.62994 17.8696 4.99994V4.99994Z" stroke="#ED1C24" stroke-width="1.5" stroke-miterlimit="10" stroke-linecap="round" stroke-linejoin="round"/>
<path d="M8.94043 10V15.14C8.94043 15.94 9.82043 16.41 10.4904 15.98L11.4304 15.36C11.5937 15.2525 11.7849 15.1952 11.9804 15.1952C12.1759 15.1952 12.3672 15.2525 12.5304 15.36L13.4204 15.96C13.5706 16.0601 13.7451 16.1176 13.9254 16.1263C14.1057 16.135 14.285 16.0945 14.4441 16.0093C14.6032 15.9241 14.7362 15.7973 14.8289 15.6425C14.9216 15.4876 14.9705 15.3105 14.9704 15.13V10H8.94043Z" stroke="#ED1C24" stroke-width="1.5" stroke-miterlimit="10" stroke-linecap="round" stroke-linejoin="round"/>
</svg>
