<svg width="24" height="24" viewBox="0 0 24 24" fill="none" xmlns="http://www.w3.org/2000/svg">
<path d="M13 4.50001V3.50001C12.9988 3.43142 13.0115 3.3633 13.0373 3.29972C13.0631 3.23615 13.1014 3.17842 13.15 3.13001C13.2043 3.08219 13.2678 3.04599 13.3366 3.02363C13.4053 3.00128 13.478 2.99324 13.55 3.00001C15.4835 3.12894 17.3044 3.95524 18.6746 5.32543C20.0448 6.69562 20.8711 8.51656 21 10.45C21.0082 10.5888 20.9615 10.7253 20.87 10.83C20.8216 10.8786 20.7639 10.9169 20.7003 10.9427C20.6367 10.9685 20.5686 10.9812 20.5 10.98H19.5C19.374 10.9804 19.2526 10.9333 19.1599 10.848C19.0672 10.7627 19.0101 10.6456 19 10.52C18.8897 9.09268 18.2727 7.75182 17.2605 6.73954C16.2482 5.72726 14.9073 5.11028 13.48 5.00001C13.3509 4.99484 13.2288 4.93989 13.1393 4.84668C13.0498 4.75346 12.9999 4.62922 13 4.50001ZM13.17 7.14001C13.116 7.18742 13.0729 7.2459 13.0436 7.31148C13.0142 7.37705 12.9994 7.44818 13 7.52001V8.52001C12.998 8.63578 13.0371 8.7485 13.1103 8.8382C13.1836 8.92789 13.2862 8.98876 13.4 9.01001C13.793 9.08195 14.1555 9.26996 14.4406 9.54978C14.7258 9.82961 14.9206 10.1884 15 10.58C15.0213 10.6938 15.0821 10.7964 15.1718 10.8697C15.2615 10.9429 15.3742 10.982 15.49 10.98H16.49C16.5618 10.9806 16.633 10.9658 16.6985 10.9364C16.7641 10.9071 16.8226 10.864 16.87 10.81C16.9166 10.7553 16.9513 10.6914 16.9719 10.6226C16.9926 10.5537 16.9987 10.4814 16.99 10.41C16.8628 9.5526 16.4639 8.75863 15.8518 8.14482C15.2398 7.53101 14.447 7.12974 13.59 7.00001C13.5172 6.99395 13.444 7.00329 13.3751 7.02741C13.3062 7.05153 13.2431 7.0899 13.19 7.14001H13.17ZM17.67 21C17.9339 21.0002 18.1953 20.9482 18.439 20.8469C18.6827 20.7457 18.9039 20.5972 19.09 20.41L20.78 18.72C20.8616 18.639 20.9235 18.5404 20.9609 18.4317C20.9983 18.323 21.0102 18.2071 20.9957 18.0931C20.9812 17.979 20.9407 17.8698 20.8773 17.7739C20.8139 17.678 20.7293 17.598 20.63 17.54L16.77 15.29C16.5789 15.1794 16.3566 15.1351 16.1378 15.164C15.9189 15.1929 15.7157 15.2935 15.56 15.45L13.67 17.34C13.5944 17.4164 13.4962 17.4665 13.3899 17.4827C13.2836 17.4989 13.175 17.4804 13.08 17.43L12.42 17.07C10.0893 15.8172 8.17704 13.9085 6.92 11.58L6.57 10.92C6.51958 10.8251 6.5011 10.7164 6.51732 10.6101C6.53353 10.5038 6.58356 10.4056 6.66 10.33L8.55 8.44001C8.7065 8.28428 8.80707 8.08113 8.83601 7.86225C8.86495 7.64337 8.82065 7.42107 8.71 7.23001L6.46 3.37001C6.40202 3.27074 6.32198 3.18612 6.22609 3.12271C6.1302 3.05929 6.02101 3.01877 5.90696 3.00427C5.79291 2.98977 5.67706 3.00169 5.56834 3.03909C5.45963 3.0765 5.36098 3.1384 5.28 3.22001L3.59 4.91001C3.40283 5.09607 3.25434 5.31733 3.15308 5.56104C3.05182 5.80475 2.99979 6.0661 3 6.33001V7.00001C3.00144 8.65375 3.41014 10.2817 4.19 11.74L4.44 12.19C6.11169 15.2993 8.66075 17.8483 11.77 19.52L12.22 19.77C13.6866 20.5702 15.3293 20.9929 17 21H17.67Z" fill="#ED1C24"/>
</svg>
