<svg width="14" height="14" viewBox="0 0 14 14" fill="none" xmlns="http://www.w3.org/2000/svg">
<path d="M12.6663 8.00004C13.2186 8.00004 13.6663 7.55233 13.6663 7.00004C13.6663 6.44776 13.2186 6.00004 12.6663 6.00004L7.99967 6.00004L7.99967 1.33337C7.99967 0.78109 7.55196 0.333374 6.99967 0.333374C6.44739 0.333374 5.99967 0.781089 5.99967 1.33337L5.99967 6.00004L1.33301 6.00004C0.780723 6.00004 0.333008 6.44776 0.333008 7.00004C0.333008 7.55233 0.780723 8.00004 1.33301 8.00004L5.99967 8.00004V12.6667C5.99967 13.219 6.44739 13.6667 6.99967 13.6667C7.55196 13.6667 7.99967 13.219 7.99967 12.6667V8.00004L12.6663 8.00004Z" fill="#3982F7"/>
</svg>
