<svg width="18" height="18" viewBox="0 0 18 18" fill="none" xmlns="http://www.w3.org/2000/svg">
<path d="M16.917 2.33331H3.76699L3.30033 1.49997C3.15348 1.24563 2.94204 1.03461 2.68742 0.888269C2.43279 0.741931 2.14401 0.665473 1.85033 0.666639H1.08366C0.973152 0.666639 0.867171 0.710538 0.789031 0.788678C0.710891 0.866818 0.666992 0.972799 0.666992 1.08331V1.91664C0.666992 2.02715 0.710891 2.13313 0.789031 2.21127C0.867171 2.28941 0.973152 2.33331 1.08366 2.33331H1.85033L5.41699 8.57497C5.48196 8.67953 5.55735 8.77726 5.64199 8.86664L4.09199 11.95C4.04451 12.0414 4.01973 12.1428 4.01973 12.2458C4.01973 12.3488 4.04451 12.4503 4.09199 12.5416L4.27533 12.8583C4.3328 12.9545 4.41476 13.0337 4.51285 13.0879C4.61093 13.1421 4.72164 13.1692 4.83366 13.1666H15.2503C15.3608 13.1666 15.4668 13.1227 15.545 13.0446C15.6231 12.9665 15.667 12.8605 15.667 12.75V11.9166C15.667 11.8061 15.6231 11.7002 15.545 11.622C15.4668 11.5439 15.3608 11.5 15.2503 11.5H6.18366L7.01699 9.75831C7.19119 9.80426 7.37021 9.82943 7.55033 9.83331H12.742C13.1702 9.82469 13.5887 9.70397 13.9557 9.48318C14.3227 9.26239 14.6254 8.94925 14.8337 8.57497L16.792 5.13331C17.1409 4.53618 17.3276 3.85821 17.3337 3.16664V2.74997C17.3337 2.63947 17.2898 2.53348 17.2116 2.45534C17.1335 2.3772 17.0275 2.33331 16.917 2.33331ZM13.4003 7.74997C13.336 7.8635 13.246 7.96035 13.1374 8.03272C13.0289 8.10509 12.9048 8.15096 12.7753 8.16664H7.58366C7.43823 8.16576 7.29556 8.12684 7.16984 8.05374C7.04411 7.98065 6.9397 7.87592 6.86699 7.74997L4.72533 3.99997H15.492C15.4503 4.09997 15.417 4.20831 15.367 4.30831L13.4003 7.74997ZM14.0003 14C13.6707 14 13.3485 14.0977 13.0744 14.2809C12.8003 14.464 12.5867 14.7243 12.4605 15.0288C12.3344 15.3334 12.3014 15.6685 12.3657 15.9918C12.43 16.3151 12.5887 16.6121 12.8218 16.8451C13.0549 17.0782 13.3519 17.237 13.6752 17.3013C13.9985 17.3656 14.3336 17.3326 14.6381 17.2064C14.9427 17.0803 15.203 16.8667 15.3861 16.5926C15.5692 16.3185 15.667 15.9963 15.667 15.6666C15.667 15.2246 15.4914 14.8007 15.1788 14.4881C14.8663 14.1756 14.4424 14 14.0003 14ZM5.66699 14C5.33736 14 5.01512 14.0977 4.74104 14.2809C4.46696 14.464 4.25334 14.7243 4.12719 15.0288C4.00105 15.3334 3.96804 15.6685 4.03235 15.9918C4.09666 16.3151 4.25539 16.6121 4.48848 16.8451C4.72157 17.0782 5.01854 17.237 5.34184 17.3013C5.66514 17.3656 6.00025 17.3326 6.3048 17.2064C6.60934 17.0803 6.86964 16.8667 7.05277 16.5926C7.23591 16.3185 7.33366 15.9963 7.33366 15.6666C7.33366 15.2246 7.15806 14.8007 6.8455 14.4881C6.53294 14.1756 6.10902 14 5.66699 14Z" fill="#101828"/>
</svg>
