<svg width="48" height="48" viewBox="0 0 48 48" fill="none" xmlns="http://www.w3.org/2000/svg">
<rect width="48" height="48" rx="4" fill="#FEF8F8"/>
<path d="M34 32.007C33.9982 32.2696 33.8931 32.521 33.7075 32.7068C33.5219 32.8926 33.2706 32.9979 33.008 33H14.992C14.7288 32.9997 14.4765 32.895 14.2905 32.7088C14.1045 32.5226 14 32.2702 14 32.007V31H32V19.3L24 26.5L14 17.5V16C14 15.7348 14.1054 15.4804 14.2929 15.2929C14.4804 15.1054 14.7348 15 15 15H33C33.2652 15 33.5196 15.1054 33.7071 15.2929C33.8946 15.4804 34 15.7348 34 16V32.007ZM16.434 17L24 23.81L31.566 17H16.434ZM12 27H20V29H12V27ZM12 22H17V24H12V22Z" fill="#ED1C24"/>
</svg>
