<svg width="24" height="24" viewBox="0 0 24 24" fill="none" xmlns="http://www.w3.org/2000/svg">
<path d="M21.5 4.00002H5.72L5.16 3.00002C4.98379 2.69481 4.73006 2.44158 4.42451 2.26597C4.11895 2.09037 3.77242 1.99862 3.42 2.00002H2.5C2.36739 2.00002 2.24021 2.05269 2.14645 2.14646C2.05268 2.24023 2 2.36741 2 2.50002V3.50002C2 3.63262 2.05268 3.7598 2.14645 3.85357C2.24021 3.94734 2.36739 4.00002 2.5 4.00002H3.42L7.7 11.49C7.77797 11.6155 7.86843 11.7328 7.97 11.84L6.11 15.54C6.05303 15.6497 6.02328 15.7714 6.02328 15.895C6.02328 16.0186 6.05303 16.1404 6.11 16.25L6.33 16.63C6.39896 16.7454 6.49732 16.8405 6.61502 16.9055C6.73273 16.9705 6.86557 17.0031 7 17H19.5C19.6326 17 19.7598 16.9473 19.8536 16.8536C19.9473 16.7598 20 16.6326 20 16.5V15.5C20 15.3674 19.9473 15.2402 19.8536 15.1465C19.7598 15.0527 19.6326 15 19.5 15H8.62L9.62 12.91C9.82904 12.9652 10.0439 12.9954 10.26 13H16.49C17.0039 12.9897 17.506 12.8448 17.9464 12.5799C18.3869 12.3149 18.7501 11.9391 19 11.49L21.35 7.36002C21.7687 6.64346 21.9928 5.8299 22 5.00002V4.50002C22 4.36741 21.9473 4.24023 21.8536 4.14646C21.7598 4.05269 21.6326 4.00002 21.5 4.00002ZM17.28 10.5C17.2029 10.6363 17.0948 10.7525 16.9645 10.8393C16.8343 10.9262 16.6854 10.9812 16.53 11H10.3C10.1255 10.999 9.95429 10.9523 9.80342 10.8645C9.65254 10.7768 9.52726 10.6512 9.44 10.5L6.87 6.00002H19.79C19.74 6.12002 19.7 6.25002 19.64 6.37002L17.28 10.5ZM18 18C17.6044 18 17.2178 18.1173 16.8889 18.3371C16.56 18.5568 16.3036 18.8692 16.1522 19.2346C16.0009 19.6001 15.9613 20.0022 16.0384 20.3902C16.1156 20.7782 16.3061 21.1345 16.5858 21.4142C16.8655 21.6939 17.2219 21.8844 17.6098 21.9616C17.9978 22.0388 18.3999 21.9991 18.7654 21.8478C19.1308 21.6964 19.4432 21.4401 19.6629 21.1112C19.8827 20.7823 20 20.3956 20 20C20 19.4696 19.7893 18.9609 19.4142 18.5858C19.0391 18.2107 18.5304 18 18 18ZM8 18C7.60444 18 7.21776 18.1173 6.88886 18.3371C6.55996 18.5568 6.30362 18.8692 6.15224 19.2346C6.00087 19.6001 5.96126 20.0022 6.03843 20.3902C6.1156 20.7782 6.30608 21.1345 6.58579 21.4142C6.86549 21.6939 7.22186 21.8844 7.60982 21.9616C7.99778 22.0388 8.39991 21.9991 8.76537 21.8478C9.13082 21.6964 9.44318 21.4401 9.66294 21.1112C9.8827 20.7823 10 20.3956 10 20C10 19.4696 9.78929 18.9609 9.41421 18.5858C9.03914 18.2107 8.53043 18 8 18Z" fill="#101828"/>
</svg>
