<svg width="14" height="14" viewBox="0 0 14 14" fill="none" xmlns="http://www.w3.org/2000/svg">
<path fill-rule="evenodd" clip-rule="evenodd" d="M5.25338 0.333374C5.00135 0.333374 4.77086 0.475499 4.6577 0.700692L3.66971 2.66671H0.999674C0.631485 2.66671 0.333008 2.96518 0.333008 3.33337V4.00004C0.333008 4.36823 0.631485 4.66671 0.999675 4.66671H12.9997C13.3679 4.66671 13.6663 4.36823 13.6663 4.00004V3.33337C13.6663 2.96518 13.3679 2.66671 12.9997 2.66671H10.3296L9.34163 0.700692C9.22847 0.475499 8.99798 0.333374 8.74595 0.333374H5.25338ZM8.90443 2.66671L8.42897 1.83466C8.36962 1.7308 8.25918 1.66671 8.13956 1.66671H5.85977C5.74015 1.66671 5.62971 1.7308 5.57036 1.83466L5.0949 2.66671H8.90443ZM11.4792 5.66671H2.52019C2.08648 5.66671 1.76824 6.0743 1.87343 6.49506L3.28761 12.1518C3.51019 13.0421 4.31016 13.6667 5.22789 13.6667H8.77146C9.68919 13.6667 10.4892 13.0421 10.7117 12.1518L12.1259 6.49506C12.2311 6.0743 11.9129 5.66671 11.4792 5.66671Z" fill="#878B94"/>
</svg>
