<svg width="24" height="24" viewBox="0 0 24 24" fill="none" xmlns="http://www.w3.org/2000/svg">
<path d="M20.5 7H3.5C3.36739 7 3.24021 6.94732 3.14645 6.85355C3.05268 6.75979 3 6.63261 3 6.5V5.5C3 5.36739 3.05268 5.24021 3.14645 5.14645C3.24021 5.05268 3.36739 5 3.5 5H20.5C20.6326 5 20.7598 5.05268 20.8536 5.14645C20.9473 5.24021 21 5.36739 21 5.5V6.5C21 6.63261 20.9473 6.75979 20.8536 6.85355C20.7598 6.94732 20.6326 7 20.5 7ZM18 12.5V11.5C18 11.3674 17.9473 11.2402 17.8536 11.1464C17.7598 11.0527 17.6326 11 17.5 11H6.5C6.36739 11 6.24021 11.0527 6.14645 11.1464C6.05268 11.2402 6 11.3674 6 11.5V12.5C6 12.6326 6.05268 12.7598 6.14645 12.8536C6.24021 12.9473 6.36739 13 6.5 13H17.5C17.6326 13 17.7598 12.9473 17.8536 12.8536C17.9473 12.7598 18 12.6326 18 12.5ZM15 18.5V17.5C15 17.3674 14.9473 17.2402 14.8536 17.1464C14.7598 17.0527 14.6326 17 14.5 17H9.5C9.36739 17 9.24021 17.0527 9.14645 17.1464C9.05268 17.2402 9 17.3674 9 17.5V18.5C9 18.6326 9.05268 18.7598 9.14645 18.8536C9.24021 18.9473 9.36739 19 9.5 19H14.5C14.6326 19 14.7598 18.9473 14.8536 18.8536C14.9473 18.7598 15 18.6326 15 18.5Z" fill="#101828"/>
</svg>
