<svg width="16" height="16" viewBox="0 0 16 16" fill="none" xmlns="http://www.w3.org/2000/svg">
<path d="M5.59338 12.3267V5.55334C5.59338 5.28667 5.67338 5.02667 5.82005 4.80667L7.64005 2.1C7.92672 1.66667 8.64005 1.36 9.24672 1.58667C9.90005 1.80667 10.3334 2.54 10.1934 3.19334L9.84672 5.37334C9.82005 5.57334 9.87338 5.75334 9.98672 5.89334C10.1 6.02 10.2667 6.1 10.4467 6.1H13.1867C13.7134 6.1 14.1667 6.31334 14.4334 6.68667C14.6867 7.04667 14.7334 7.51334 14.5667 7.98667L12.9267 12.98C12.72 13.8067 11.8201 14.48 10.9267 14.48H8.32672C7.88005 14.48 7.25338 14.3267 6.96672 14.04L6.11338 13.38C5.78672 13.1333 5.59338 12.74 5.59338 12.3267Z" fill="#878B94"/>
<path d="M3.47337 4.25269H2.78671C1.75337 4.25269 1.33337 4.65269 1.33337 5.63935V12.346C1.33337 13.3327 1.75337 13.7327 2.78671 13.7327H3.47337C4.50671 13.7327 4.92671 13.3327 4.92671 12.346V5.63935C4.92671 4.65269 4.50671 4.25269 3.47337 4.25269Z" fill="#878B94"/>
</svg>
