<svg width="16" height="16" viewBox="0 0 16 16" fill="none" xmlns="http://www.w3.org/2000/svg">
<path d="M14.3733 7.15933L13.4667 6.10599C13.2933 5.90599 13.1533 5.53266 13.1533 5.26599V4.13266C13.1533 3.42599 12.5733 2.84599 11.8667 2.84599H10.7333C10.4733 2.84599 10.0933 2.70599 9.89334 2.53266L8.84 1.62599C8.38 1.23266 7.62667 1.23266 7.16 1.62599L6.11334 2.53933C5.91334 2.70599 5.53334 2.84599 5.27334 2.84599H4.12C3.41334 2.84599 2.83334 3.42599 2.83334 4.13266V5.27266C2.83334 5.53266 2.69334 5.90599 2.52667 6.10599L1.62667 7.16599C1.24 7.62599 1.24 8.37266 1.62667 8.83266L2.52667 9.89266C2.69334 10.0927 2.83334 10.466 2.83334 10.726V11.866C2.83334 12.5727 3.41334 13.1527 4.12 13.1527H5.27334C5.53334 13.1527 5.91334 13.2927 6.11334 13.466L7.16667 14.3727C7.62667 14.766 8.38 14.766 8.84667 14.3727L9.9 13.466C10.1 13.2927 10.4733 13.1527 10.74 13.1527H11.8733C12.58 13.1527 13.16 12.5727 13.16 11.866V10.7327C13.16 10.4727 13.3 10.0927 13.4733 9.89266L14.38 8.83933C14.7667 8.37933 14.7667 7.61933 14.3733 7.15933ZM10.7733 6.73933L7.55334 9.95933C7.45959 10.053 7.3325 10.1056 7.2 10.1056C7.0675 10.1056 6.94042 10.053 6.84667 9.95933L5.23334 8.34599C5.14035 8.2519 5.0882 8.12495 5.0882 7.99266C5.0882 7.86037 5.14035 7.73342 5.23334 7.63933C5.42667 7.44599 5.74667 7.44599 5.94 7.63933L7.2 8.89933L10.0667 6.03266C10.26 5.83933 10.58 5.83933 10.7733 6.03266C10.9667 6.22599 10.9667 6.54599 10.7733 6.73933Z" fill="#5AC51C"/>
</svg>
