<svg width="48" height="48" viewBox="0 0 48 48" fill="none" xmlns="http://www.w3.org/2000/svg">
<path d="M24 0.666687C19.3851 0.666687 14.8738 2.03516 11.0367 4.59906C7.19952 7.16296 4.20883 10.8071 2.44278 15.0707C0.676736 19.3343 0.214658 24.0259 1.11498 28.5521C2.0153 33.0784 4.23759 37.236 7.50081 40.4992C10.764 43.7624 14.9216 45.9847 19.4479 46.885C23.9741 47.7853 28.6656 47.3233 32.9292 45.5572C37.1929 43.7912 40.837 40.8005 43.4009 36.9633C45.9648 33.1262 47.3333 28.6149 47.3333 24C47.3333 20.9358 46.7298 17.9017 45.5572 15.0707C44.3845 12.2398 42.6658 9.66756 40.4991 7.50086C38.3324 5.33416 35.7602 3.61544 32.9292 2.44283C30.0983 1.27022 27.0641 0.666687 24 0.666687ZM33.3333 25.4934L19.73 33.9867C19.4653 34.1656 19.1568 34.2686 18.8378 34.2847C18.5188 34.3007 18.2014 34.2292 17.9202 34.0777C17.6389 33.9263 17.4045 33.7008 17.2423 33.4256C17.0801 33.1504 16.9963 32.8361 17 32.5167V15.4834C17.0018 15.1713 17.0871 14.8653 17.2469 14.5973C17.4068 14.3292 17.6354 14.1088 17.9091 13.9589C18.1829 13.8089 18.4917 13.7349 18.8036 13.7445C19.1156 13.7541 19.4193 13.8469 19.6833 14.0134L33.3333 22.5067C33.5838 22.6671 33.7899 22.888 33.9327 23.1489C34.0754 23.4099 34.1503 23.7026 34.1503 24C34.1503 24.2975 34.0754 24.5902 33.9327 24.8511C33.7899 25.1121 33.5838 25.3329 33.3333 25.4934Z" fill="white"/>
</svg>
