<svg width="16" height="16" viewBox="0 0 16 16" fill="none" xmlns="http://www.w3.org/2000/svg">
<path d="M8.83333 1.74999V0.916654C8.83236 0.859495 8.84293 0.802727 8.86441 0.749747C8.88589 0.696768 8.91783 0.648666 8.95833 0.608321C9.00356 0.568473 9.05647 0.538305 9.11379 0.519674C9.17112 0.501042 9.23165 0.494343 9.29167 0.499988C10.9029 0.607426 12.4203 1.29601 13.5622 2.43784C14.704 3.57966 15.3926 5.09711 15.5 6.70832C15.5068 6.824 15.4679 6.93773 15.3917 7.02499C15.3513 7.06549 15.3032 7.09743 15.2502 7.11891C15.1973 7.14039 15.1405 7.15096 15.0833 7.14999H14.25C14.145 7.15032 14.0438 7.11103 13.9666 7.03996C13.8893 6.96889 13.8417 6.87129 13.8333 6.76665C13.7414 5.57722 13.2273 4.45983 12.3837 3.61626C11.5402 2.7727 10.4228 2.25855 9.23333 2.16665C9.12574 2.16235 9.02399 2.11655 8.94942 2.03888C8.87485 1.9612 8.83325 1.85767 8.83333 1.74999ZM8.975 3.94999C8.93003 3.9895 8.89409 4.03823 8.86964 4.09288C8.8452 4.14752 8.83281 4.20679 8.83333 4.26665V5.09999C8.83169 5.19646 8.86427 5.2904 8.92529 5.36514C8.9863 5.43989 9.07182 5.49061 9.16667 5.50832C9.49417 5.56827 9.79621 5.72494 10.0339 5.95813C10.2715 6.19132 10.4339 6.49034 10.5 6.81665C10.5177 6.9115 10.5684 6.99702 10.6432 7.05803C10.7179 7.11905 10.8119 7.15163 10.9083 7.14999H11.7417C11.8015 7.15051 11.8608 7.13812 11.9154 7.11368C11.9701 7.08923 12.0188 7.0533 12.0583 7.00832C12.0971 6.96269 12.1261 6.90951 12.1433 6.85213C12.1605 6.79476 12.1656 6.73444 12.1583 6.67499C12.0523 5.96048 11.7199 5.29884 11.2099 4.78733C10.6999 4.27582 10.0392 3.94143 9.325 3.83332C9.26436 3.82827 9.20334 3.83606 9.14591 3.85616C9.08848 3.87626 9.03592 3.90823 8.99167 3.94999H8.975ZM12.725 15.5C12.9449 15.5002 13.1627 15.4568 13.3658 15.3724C13.5689 15.288 13.7533 15.1643 13.9083 15.0083L15.3167 13.6C15.3847 13.5325 15.4363 13.4503 15.4674 13.3597C15.4986 13.2691 15.5085 13.1726 15.4965 13.0775C15.4844 12.9825 15.4506 12.8915 15.3978 12.8116C15.3449 12.7317 15.2744 12.665 15.1917 12.6167L11.975 10.7417C11.8158 10.6494 11.6305 10.6125 11.4481 10.6366C11.2657 10.6608 11.0964 10.7446 10.9667 10.875L9.39167 12.45C9.32867 12.5137 9.24682 12.5554 9.15825 12.5689C9.06969 12.5824 8.97913 12.567 8.9 12.525L8.35 12.225C6.40772 11.181 4.8142 9.59036 3.76667 7.64999L3.475 7.09999C3.43298 7.02086 3.41759 6.9303 3.4311 6.84174C3.44461 6.75317 3.4863 6.67132 3.55 6.60832L5.125 5.03332C5.25542 4.90354 5.33922 4.73425 5.36334 4.55186C5.38746 4.36946 5.35054 4.1842 5.25833 4.02499L3.38333 0.808321C3.33501 0.725594 3.26832 0.655082 3.18841 0.602235C3.1085 0.549387 3.01751 0.515618 2.92247 0.503537C2.82743 0.491455 2.73088 0.501385 2.64029 0.532558C2.5497 0.563732 2.46748 0.615314 2.4 0.683321L0.991667 2.09165C0.835694 2.2467 0.711949 2.43109 0.627565 2.63418C0.543181 2.83727 0.499826 3.05506 0.500001 3.27499V3.83332C0.501197 5.21144 0.841782 6.56806 1.49167 7.78332L1.7 8.15832C3.09308 10.7494 5.21729 12.8736 7.80833 14.2667L8.18333 14.475C9.40552 15.1418 10.7744 15.494 12.1667 15.5H12.725Z" fill="#101828"/>
</svg>
