<svg width="22" height="22" viewBox="0 0 22 22" fill="none" xmlns="http://www.w3.org/2000/svg">
<path fill-rule="evenodd" clip-rule="evenodd" d="M8.78408 11.9728C8.19532 11.384 7.62842 10.7816 7.08337 10.1667C6.61979 9.6437 6.76563 8.8329 7.37089 8.48347L9.05638 7.51036C9.63608 7.17566 9.83468 6.43437 9.49998 5.85465L6.46984 0.606236C6.13514 0.0265159 5.39385 -0.172114 4.81412 0.162586L0.615396 2.58673C0.284137 2.77798 0.0773065 3.10198 0.0233165 3.45274C0.0219465 3.45716 0.0206065 3.4626 0.0192965 3.46911C-0.0430735 3.78067 0.0570165 4.35719 0.158877 4.69262C1.33256 8.29467 3.35056 11.6816 6.2129 14.5439C9.57588 17.9069 13.663 20.1044 17.9723 21.1363L17.9747 21.134C18.4655 21.2252 18.982 21.005 19.2459 20.548L21.67 16.3493C22.0047 15.7696 21.8061 15.0283 21.2264 14.6936L15.978 11.6634C15.3982 11.3287 14.657 11.5273 14.3223 12.1071L13.1489 14.1394C12.8059 14.7336 12.0156 14.8874 11.4892 14.4474C10.5598 13.6706 9.65698 12.8457 8.78408 11.9728Z" fill="white"/>
</svg>
