<svg width="48" height="48" viewBox="0 0 48 48" fill="none" xmlns="http://www.w3.org/2000/svg">
<rect width="48" height="48" rx="4" fill="#FEF8F8"/>
<path d="M25 16.5V15.5C24.9988 15.4314 25.0115 15.3633 25.0373 15.2997C25.0631 15.2361 25.1014 15.1784 25.15 15.13C25.2043 15.0822 25.2678 15.046 25.3366 15.0236C25.4053 15.0013 25.478 14.9932 25.55 15C27.4835 15.1289 29.3044 15.9552 30.6746 17.3254C32.0448 18.6956 32.8711 20.5166 33 22.45C33.0082 22.5888 32.9615 22.7253 32.87 22.83C32.8216 22.8786 32.7639 22.9169 32.7003 22.9427C32.6367 22.9685 32.5686 22.9812 32.5 22.98H31.5C31.374 22.9804 31.2526 22.9333 31.1599 22.848C31.0672 22.7627 31.0101 22.6456 31 22.52C30.8897 21.0927 30.2727 19.7518 29.2605 18.7395C28.2482 17.7273 26.9073 17.1103 25.48 17C25.3509 16.9948 25.2288 16.9399 25.1393 16.8467C25.0498 16.7535 24.9999 16.6292 25 16.5ZM25.17 19.14C25.116 19.1874 25.0729 19.2459 25.0436 19.3115C25.0142 19.377 24.9994 19.4482 25 19.52V20.52C24.998 20.6358 25.0371 20.7485 25.1103 20.8382C25.1836 20.9279 25.2862 20.9888 25.4 21.01C25.793 21.082 26.1555 21.27 26.4406 21.5498C26.7258 21.8296 26.9206 22.1884 27 22.58C27.0213 22.6938 27.0821 22.7964 27.1718 22.8697C27.2615 22.9429 27.3742 22.982 27.49 22.98H28.49C28.5618 22.9806 28.633 22.9658 28.6985 22.9364C28.7641 22.9071 28.8226 22.864 28.87 22.81C28.9166 22.7553 28.9513 22.6914 28.9719 22.6226C28.9926 22.5537 28.9987 22.4814 28.99 22.41C28.8628 21.5526 28.4639 20.7586 27.8518 20.1448C27.2398 19.531 26.447 19.1297 25.59 19C25.5172 18.994 25.444 19.0033 25.3751 19.0274C25.3062 19.0515 25.2431 19.0899 25.19 19.14H25.17ZM29.67 33C29.9339 33.0002 30.1953 32.9482 30.439 32.8469C30.6827 32.7457 30.9039 32.5972 31.09 32.41L32.78 30.72C32.8616 30.639 32.9235 30.5404 32.9609 30.4317C32.9983 30.323 33.0102 30.2071 32.9957 30.0931C32.9812 29.979 32.9407 29.8698 32.8773 29.7739C32.8139 29.678 32.7293 29.598 32.63 29.54L28.77 27.29C28.5789 27.1794 28.3566 27.1351 28.1378 27.164C27.9189 27.1929 27.7157 27.2935 27.56 27.45L25.67 29.34C25.5944 29.4164 25.4962 29.4665 25.3899 29.4827C25.2836 29.4989 25.175 29.4804 25.08 29.43L24.42 29.07C22.0893 27.8172 20.177 25.9085 18.92 23.58L18.57 22.92C18.5196 22.8251 18.5011 22.7164 18.5173 22.6101C18.5335 22.5038 18.5836 22.4056 18.66 22.33L20.55 20.44C20.7065 20.2843 20.8071 20.0811 20.836 19.8623C20.865 19.6434 20.8206 19.4211 20.71 19.23L18.46 15.37C18.402 15.2707 18.322 15.1861 18.2261 15.1227C18.1302 15.0593 18.021 15.0188 17.907 15.0043C17.7929 14.9898 17.6771 15.0017 17.5683 15.0391C17.4596 15.0765 17.361 15.1384 17.28 15.22L15.59 16.91C15.4028 17.0961 15.2543 17.3173 15.1531 17.561C15.0518 17.8048 14.9998 18.0661 15 18.33V19C15.0014 20.6538 15.4101 22.2817 16.19 23.74L16.44 24.19C18.1117 27.2993 20.6608 29.8483 23.77 31.52L24.22 31.77C25.6866 32.5702 27.3293 32.9929 29 33H29.67Z" fill="#ED1C24"/>
</svg>
