<svg width="32" height="32" viewBox="0 0 32 32" fill="none" xmlns="http://www.w3.org/2000/svg">
<path d="M29.3334 12.4267L29.2267 12.0933C29.1886 11.9647 29.1119 11.851 29.0069 11.7675C28.902 11.684 28.7739 11.6348 28.64 11.6267L20.12 10.9467L16.8 3.09332C16.7529 2.96586 16.6672 2.85627 16.5549 2.77979C16.4426 2.70332 16.3092 2.66377 16.1734 2.66665H15.8267C15.6894 2.66485 15.5548 2.70464 15.4406 2.7808C15.3263 2.85695 15.2378 2.9659 15.1867 3.09332L11.92 10.9467L3.40003 11.6267C3.26617 11.6348 3.13806 11.684 3.03311 11.7675C2.92815 11.851 2.85143 11.9647 2.81336 12.0933L2.66669 12.4267C2.62241 12.5527 2.61783 12.6893 2.6536 12.8181C2.68936 12.9468 2.76373 13.0615 2.86669 13.1467L9.33336 18.6667L7.41336 26.96C7.38156 27.0896 7.38863 27.2258 7.43368 27.3514C7.47872 27.4771 7.55977 27.5867 7.66669 27.6667L8.00003 27.8667C8.11396 27.956 8.2553 28.0031 8.40003 28C8.52212 28.0026 8.64241 27.9702 8.74669 27.9067L16 23.4667L23.2934 27.9067C23.3976 27.9702 23.5179 28.0026 23.64 28C23.7848 28.0031 23.9261 27.956 24.04 27.8667L24.3334 27.6667C24.4403 27.5867 24.5213 27.4771 24.5664 27.3514C24.6114 27.2258 24.6185 27.0896 24.5867 26.96L22.6667 18.6667L29.1467 13.1333C29.2447 13.0475 29.3148 12.9344 29.3481 12.8085C29.3814 12.6826 29.3762 12.5496 29.3334 12.4267ZM20 17.84L21.4934 24.08L16 20.7333V7.21332L18.48 13.16L24.8934 13.6667L20 17.84Z" fill="#FF9419"/>
</svg>
