<svg width="28" height="27" viewBox="0 0 28 27" fill="none" xmlns="http://www.w3.org/2000/svg">
<path d="M0.906611 11.1467C0.796618 11.0666 0.714369 10.9542 0.671344 10.8251C0.628319 10.696 0.626665 10.5568 0.666611 10.4267L0.773278 10.0934C0.811346 9.96477 0.888067 9.851 0.993022 9.76752C1.09798 9.68403 1.22608 9.63486 1.35994 9.62669L9.87994 8.94669L13.1466 1.09336C13.2 0.959286 13.2947 0.845679 13.4169 0.768975C13.5392 0.692272 13.6827 0.65645 13.8266 0.666694H14.1733C14.3091 0.663811 14.4425 0.70336 14.5548 0.779835C14.6671 0.85631 14.7528 0.965904 14.7999 1.09336L18.0799 8.94669L26.5999 9.62669C26.7338 9.63486 26.8619 9.68403 26.9669 9.76752C27.0718 9.851 27.1485 9.96477 27.1866 10.0934L27.2933 10.4267C27.3376 10.5528 27.3421 10.6894 27.3064 10.8181C27.2706 10.9469 27.1962 11.0615 27.0933 11.1467L20.6666 16.6667L22.6399 24.9467C22.6717 25.0763 22.6647 25.2125 22.6196 25.3382C22.5746 25.4638 22.4935 25.5734 22.3866 25.6534L21.9999 25.8667C21.8897 25.9412 21.7597 25.981 21.6266 25.981C21.4935 25.981 21.3635 25.9412 21.2533 25.8667L13.9999 21.4667L6.70661 25.9067C6.59637 25.9812 6.46634 26.021 6.33328 26.021C6.20021 26.021 6.07019 25.9812 5.95994 25.9067L5.66661 25.7067C5.55968 25.6268 5.47864 25.5172 5.43359 25.3915C5.38854 25.2658 5.38148 25.1297 5.41328 25L7.33328 16.6667L0.906611 11.1467Z" fill="#FF9419"/>
</svg>
