<svg width="40" height="40" viewBox="0 0 40 40" fill="none" xmlns="http://www.w3.org/2000/svg">
<path fill-rule="evenodd" clip-rule="evenodd" d="M20 40C31.0457 40 40 31.0457 40 20C40 8.95431 31.0457 0 20 0C8.95431 0 0 8.95431 0 20C0 31.0457 8.95431 40 20 40Z" fill="white"/>
<path d="M20.6203 29.9738L14.8758 29.8653C13.0159 29.8275 11.1513 29.903 9.32781 29.5113C6.55388 28.9262 6.35736 26.057 6.15173 23.6504C5.86839 20.2669 5.97808 16.822 6.51278 13.4668C6.81464 11.5842 8.00256 10.4608 9.83964 10.3386C16.0412 9.89492 22.2839 9.9475 28.4717 10.1545C29.1252 10.1734 29.7832 10.2772 30.4275 10.3952C33.6084 10.9709 33.686 14.2223 33.8922 16.9593C34.0978 19.7246 34.011 22.5041 33.6179 25.2506C33.3026 27.5246 32.6993 29.4315 30.1533 29.6156C26.9634 29.8563 23.8466 30.0501 20.6477 29.9884C20.6478 29.9738 20.6294 29.9738 20.6203 29.9738ZM17.2431 24.2167C19.647 22.7915 22.005 21.39 24.3952 19.9743C21.9868 18.5491 19.6333 17.1476 17.2431 15.732V24.2167Z" fill="#FF0000"/>
</svg>
